<svg width="298" height="69" viewBox="0 0 298 69" fill="none" xmlns="http://www.w3.org/2000/svg">
<path d="M150.569 20.7392C150.629 20.047 150.845 19.3667 151.213 18.6985C151.581 18.0303 151.996 17.4941 152.464 17.086C153.32 17.5941 154.291 18.0583 155.383 18.4704C156.474 18.8826 157.562 19.0906 158.653 19.0906C159.541 19.0906 160.176 18.8746 160.564 18.4504C160.952 18.0223 161.144 17.5621 161.144 17.0739C161.144 16.7498 161.036 16.3737 160.824 15.9496C160.608 15.5254 160.076 15.1373 159.221 14.7811L155.539 13.2526C154.275 12.7244 153.232 12.0122 152.408 11.1279C151.585 10.2396 151.169 9.06716 151.169 7.61065C151.169 6.33821 151.501 5.22182 152.16 4.26149C152.824 3.30516 153.716 2.5569 154.843 2.02071C155.966 1.48452 157.226 1.21643 158.609 1.21643C159.992 1.21643 161.412 1.4045 162.683 1.78063C163.95 2.15676 164.982 2.5569 165.778 2.97304C165.738 3.67729 165.57 4.35352 165.282 4.99775C164.99 5.64597 164.606 6.19016 164.126 6.62631C163.351 6.25818 162.447 5.92207 161.408 5.60996C160.368 5.29785 159.437 5.1418 158.613 5.1418C157.738 5.1418 157.114 5.34187 156.742 5.738C156.37 6.13414 156.182 6.53828 156.182 6.94642C156.182 7.35457 156.314 7.67868 156.57 7.98678C156.826 8.29489 157.298 8.58699 157.969 8.87509L161.728 10.4196C162.715 10.8278 163.555 11.3359 164.242 11.9402C164.93 12.5484 165.454 13.2286 165.81 13.9889C166.165 14.7491 166.345 15.5734 166.345 16.4577C166.345 17.6902 166.045 18.8065 165.45 19.7989C164.854 20.7912 163.958 21.5795 162.767 22.1557C161.576 22.7319 160.088 23.02 158.305 23.02C157.074 23.02 155.759 22.8239 154.363 22.4318C152.968 22.0397 151.705 21.4755 150.573 20.7432L150.569 20.7392Z" fill="#003986"/>
<path d="M168.048 18.3824C168.048 17.1499 168.332 16.1416 168.904 15.3613C169.476 14.5811 170.219 14.0009 171.143 13.6247C172.066 13.2486 173.05 13.0605 174.101 13.0605C174.561 13.0605 175.137 13.0725 175.836 13.0925C176.536 13.1125 177.164 13.1806 177.724 13.2926V16.3217C177.284 16.2216 176.756 16.1616 176.14 16.1456C175.525 16.1296 175.013 16.1216 174.605 16.1216C173.921 16.1216 173.434 16.3017 173.138 16.6658C172.842 17.0259 172.694 17.4941 172.694 18.0663C172.694 18.4744 172.822 18.8145 173.078 19.0826C173.334 19.3547 173.674 19.4868 174.101 19.4868C174.713 19.4868 175.333 19.2667 175.964 18.8305C176.596 18.3904 177.132 17.7902 177.568 17.0259L178.239 20.055C177.843 20.5231 177.388 20.9873 176.88 21.4474C176.372 21.9076 175.776 22.2837 175.093 22.5798C174.409 22.8759 173.61 23.024 172.694 23.024C171.647 23.024 170.775 22.7879 170.087 22.3197C169.4 21.8516 168.888 21.2594 168.552 20.5471C168.216 19.8349 168.048 19.1146 168.048 18.3904V18.3824ZM181.909 20.3551C181.829 20.7712 181.638 21.2274 181.346 21.7155C181.05 22.2037 180.754 22.5678 180.458 22.7999C179.563 22.7799 178.819 22.5758 178.235 22.1877C177.648 21.7996 177.2 21.3234 176.892 20.7592C176.58 20.195 176.38 19.6388 176.288 19.0986V12.5563C176.288 11.9121 176.128 11.428 175.808 11.1038C175.489 10.7797 174.981 10.6157 174.289 10.6157C173.638 10.6157 172.922 10.7197 172.15 10.9278C171.375 11.1359 170.587 11.3599 169.783 11.592C169.448 11.2039 169.184 10.7037 168.996 10.0875C168.808 9.47128 168.688 8.86707 168.636 8.27486C169.32 7.99076 170.079 7.74668 170.915 7.54661C171.75 7.34654 172.582 7.19448 173.414 7.08645C174.245 6.97841 174.985 6.92639 175.637 6.92639C176.532 6.92639 177.396 7.09045 178.219 7.42256C179.043 7.75468 179.723 8.29887 180.258 9.05913C180.794 9.8194 181.062 10.8478 181.062 12.1402V18.3664C181.062 18.8065 181.13 19.1907 181.27 19.5268C181.406 19.8629 181.622 20.139 181.917 20.3511L181.909 20.3551Z" fill="#003986"/>
<path d="M186.647 7.08248C187.563 7.08248 188.254 7.39458 188.718 8.0228C189.182 8.65102 189.414 9.49531 189.414 10.5557V22.5599C189.078 22.6199 188.698 22.6679 188.274 22.6959C187.85 22.7279 187.435 22.7399 187.031 22.7399C186.627 22.7399 186.223 22.7239 185.8 22.6959C185.376 22.6639 184.988 22.6199 184.632 22.5599V7.29455L184.848 7.07847H186.651L186.647 7.08248ZM197.77 18.7345C197.77 19.3267 197.825 19.8829 197.937 20.4111C198.049 20.9353 198.249 21.3915 198.533 21.7796C198.185 22.0637 197.754 22.3078 197.234 22.5078C196.714 22.7079 196.154 22.8079 195.555 22.8079C194.595 22.8079 193.931 22.5519 193.552 22.0437C193.176 21.5355 192.988 20.7992 192.988 19.8429V13.3447C192.988 12.6524 192.9 12.1402 192.72 11.8081C192.54 11.476 192.196 11.3119 191.689 11.3119C191.373 11.3119 191.009 11.396 190.597 11.564C190.185 11.7321 189.774 12.0082 189.358 12.3963C188.942 12.7845 188.582 13.2966 188.266 13.9409V9.7514C188.99 9.05916 189.77 8.43094 190.613 7.87075C191.453 7.31055 192.412 7.03046 193.492 7.03046C194.427 7.03046 195.215 7.26254 195.846 7.7267C196.478 8.19086 196.958 8.83108 197.282 9.64737C197.61 10.4637 197.77 11.408 197.77 12.4764V18.7465V18.7345Z" fill="#003986"/>
<path d="M157.126 25.5529C157.514 25.4928 157.977 25.4448 158.525 25.4168C159.069 25.3848 159.545 25.3728 159.952 25.3728C160.36 25.3728 160.812 25.3888 161.368 25.4168C161.923 25.4488 162.395 25.5048 162.783 25.5849L169.352 46.124C169.016 46.3161 168.58 46.4641 168.044 46.5682C167.509 46.6682 167.013 46.7202 166.553 46.7202C165.778 46.7202 165.174 46.5402 164.734 46.176C164.294 45.8159 163.93 45.1077 163.635 44.0593L161.448 36.3046C161.212 35.4483 160.94 34.44 160.632 33.2756C160.32 32.1151 160.032 31.0268 159.769 30.0184H159.585C159.481 30.5786 159.345 31.2068 159.173 31.8991C159.001 32.5913 158.817 33.2836 158.629 33.9718C158.441 34.66 158.265 35.2843 158.101 35.8444L154.983 46.4721C154.679 46.5442 154.351 46.5922 154.003 46.6162C153.656 46.6402 153.292 46.6562 152.904 46.6562C152.536 46.6562 152.12 46.6242 151.657 46.5642C151.193 46.5042 150.825 46.4201 150.549 46.3201L150.365 46.06L157.118 25.5529H157.126ZM157.494 42.0706C157.35 42.0706 157.186 42.0706 156.998 42.0626C156.81 42.0586 156.622 42.0546 156.438 42.0466C156.254 42.0426 156.086 42.0386 155.934 42.0386H153.368L154.851 38.2293H157.114C157.258 38.2293 157.418 38.2293 157.602 38.2213C157.786 38.2173 157.969 38.2093 158.153 38.2053C158.337 38.2013 158.501 38.1973 158.641 38.1973H160.872C161.024 38.1973 161.192 38.1973 161.368 38.2053C161.548 38.2093 161.728 38.2173 161.919 38.2213C162.107 38.2253 162.271 38.2293 162.415 38.2293H164.754L165.993 42.0386H163.411C163.267 42.0386 163.103 42.0386 162.915 42.0466C162.727 42.0506 162.539 42.0586 162.351 42.0626C162.163 42.0666 161.995 42.0706 161.855 42.0706H157.502H157.494Z" fill="#003986"/>
<path d="M173.446 30.9628C174.361 30.9628 175.053 31.2749 175.517 31.9031C175.98 32.5313 176.212 33.3756 176.212 34.436V46.4401C175.876 46.5002 175.497 46.5482 175.073 46.5762C174.649 46.6082 174.233 46.6242 173.829 46.6242C173.426 46.6242 173.022 46.6082 172.598 46.5762C172.174 46.5442 171.786 46.5002 171.431 46.4401V31.1788L171.647 30.9628H173.45H173.446ZM184.568 42.6148C184.568 43.207 184.624 43.7632 184.736 44.2874C184.848 44.8116 185.048 45.2677 185.332 45.6559C184.984 45.94 184.552 46.1841 184.032 46.3841C183.513 46.5842 182.953 46.6842 182.353 46.6842C181.394 46.6842 180.73 46.4281 180.35 45.92C179.974 45.4118 179.786 44.6755 179.786 43.7192V37.2209C179.786 36.5287 179.699 36.0165 179.519 35.6844C179.339 35.3523 178.995 35.1882 178.487 35.1882C178.171 35.1882 177.807 35.2723 177.396 35.4403C176.984 35.6084 176.572 35.8885 176.156 36.2726C175.745 36.6607 175.381 37.1729 175.065 37.8171V33.6277C175.788 32.9354 176.568 32.3072 177.412 31.747C178.251 31.1868 179.211 30.9067 180.29 30.9067C181.226 30.9067 182.013 31.1388 182.645 31.603C183.277 32.0671 183.757 32.7074 184.08 33.5236C184.408 34.3399 184.568 35.2843 184.568 36.3526V42.6228V42.6148Z" fill="#003986"/>
<path d="M187.303 38.9936C187.303 37.241 187.579 35.7605 188.134 34.552C188.69 33.3436 189.43 32.4273 190.357 31.8071C191.285 31.1869 192.308 30.8748 193.428 30.8748C194.487 30.8748 195.427 31.0908 196.246 31.523C197.066 31.9551 197.814 32.3833 198.485 32.7994L197.722 36.1966C197.13 35.7164 196.53 35.3003 195.919 34.9482C195.307 34.5961 194.751 34.42 194.251 34.42C193.752 34.42 193.368 34.6041 193.068 34.9762C192.768 35.3483 192.544 35.8765 192.404 36.5647C192.26 37.253 192.188 38.0693 192.188 39.0176C192.188 39.9659 192.268 40.7222 192.424 41.3184C192.58 41.9146 192.8 42.3548 193.08 42.6349C193.36 42.9149 193.672 43.055 194.019 43.055C194.343 43.055 194.723 42.955 195.159 42.7549C195.591 42.5548 196.014 42.1787 196.426 41.6225C196.838 41.0663 197.178 40.254 197.442 39.1816L198.513 41.8866C198.421 42.7109 198.109 43.5072 197.582 44.2714C197.05 45.0357 196.37 45.6639 195.543 46.1521C194.711 46.6402 193.792 46.8843 192.784 46.8843C191.553 46.8843 190.529 46.5482 189.714 45.876C188.898 45.2037 188.294 44.2714 187.895 43.079C187.499 41.8866 187.299 40.5181 187.299 38.9816L187.303 38.9936ZM200.9 42.0226C200.9 42.5108 200.98 42.955 201.136 43.3511C201.292 43.7472 201.5 44.0433 201.756 44.2394C201.664 44.6556 201.472 45.1117 201.184 45.5999C200.892 46.0881 200.6 46.4522 200.304 46.6843C198.961 46.6643 197.946 46.2121 197.262 45.3238C196.578 44.4355 196.238 43.3551 196.238 42.0827V24.1444L196.45 23.9283H198.313C199.249 23.9283 199.917 24.1444 200.308 24.5726C200.7 25.0007 200.896 25.745 200.896 26.8053V42.0226H200.9Z" fill="#003986"/>
<path d="M203.699 33.3956C203.779 32.9675 203.967 32.5073 204.262 32.0111C204.558 31.515 204.854 31.1588 205.15 30.9348C206.565 31.0388 207.633 31.559 208.352 32.5033C209.072 33.4476 209.496 34.6841 209.628 36.2126V46.4441C209.292 46.5042 208.916 46.5522 208.496 46.5802C208.081 46.6122 207.661 46.6282 207.245 46.6282C206.829 46.6282 206.437 46.6122 206.014 46.5802C205.59 46.5482 205.202 46.5042 204.846 46.4441V36.5647C204.846 35.6564 204.718 34.9482 204.458 34.432C204.198 33.9158 203.947 33.5717 203.703 33.3996L203.699 33.3956ZM214.897 31.2229C214.897 31.783 214.797 32.4993 214.593 33.3716C214.389 34.2439 214.094 35.0162 213.706 35.6884C213.442 35.5884 213.178 35.5163 212.918 35.4723C212.658 35.4323 212.394 35.3963 212.131 35.3643C211.723 35.3643 211.355 35.4403 211.031 35.5844C210.703 35.7324 210.411 35.9485 210.144 36.2326C209.88 36.5167 209.628 36.8688 209.396 37.289C209.16 37.7091 208.936 38.1853 208.724 38.7255L208.188 38.0052C208.24 37.1569 208.348 36.3206 208.508 35.4883C208.672 34.656 208.92 33.8998 209.256 33.2155C209.592 32.5313 210.052 31.9831 210.639 31.571C211.223 31.1588 211.967 30.9508 212.862 30.9508C213.33 30.9508 213.71 30.9748 214.002 31.0188C214.293 31.0628 214.589 31.1268 214.897 31.2109V31.2229Z" fill="#003986"/>
<path d="M218.443 40.3541V37.0649H224.204V36.7128C224.204 36.2446 224.136 35.8125 224.004 35.4203C223.873 35.0282 223.661 34.7121 223.369 34.472C223.077 34.2319 222.689 34.1119 222.201 34.1119C221.458 34.1119 220.934 34.416 220.634 35.0282C220.334 35.6404 220.182 36.5847 220.182 37.8572V39.2937C220.182 39.9859 220.242 40.6342 220.366 41.2344C220.49 41.8346 220.75 42.3187 221.146 42.6869C221.542 43.055 222.149 43.2391 222.965 43.2391C223.657 43.2391 224.336 43.151 225.004 42.971C225.672 42.7909 226.311 42.5748 226.923 42.3227C227.279 42.6709 227.567 43.107 227.779 43.6392C227.994 44.1714 228.134 44.6756 228.206 45.1517C227.431 45.7119 226.507 46.1441 225.432 46.4442C224.356 46.7443 223.273 46.8963 222.185 46.8963C220.842 46.8963 219.731 46.6763 218.855 46.2321C217.979 45.7879 217.288 45.1877 216.776 44.4275C216.268 43.6672 215.909 42.8109 215.697 41.8586C215.485 40.9063 215.385 39.9259 215.385 38.9136C215.385 37.373 215.617 35.9845 216.08 34.7441C216.544 33.5037 217.28 32.5233 218.287 31.7991C219.295 31.0748 220.61 30.7147 222.229 30.7147C223.573 30.7147 224.72 30.9988 225.668 31.571C226.615 32.1432 227.339 32.9155 227.847 33.8878C228.35 34.8602 228.602 35.9645 228.602 37.201C228.602 37.8852 228.57 38.4534 228.502 38.9056C228.434 39.3577 228.33 39.8419 228.19 40.3501H218.443V40.3541ZM224.156 22.904C224.728 23.0761 225.304 23.4282 225.884 23.9524C226.463 24.4765 226.847 25.0447 227.031 25.6569L221.378 29.9064C220.982 29.7824 220.594 29.5543 220.214 29.2182C219.835 28.8821 219.567 28.4939 219.403 28.0578L224.156 22.904Z" fill="#003986"/>
<path d="M230.237 45.3878C230.257 44.8796 230.397 44.3074 230.657 43.6752C230.917 43.043 231.221 42.5428 231.565 42.1747C232.236 42.5228 232.932 42.8189 233.652 43.071C234.371 43.3191 235.087 43.4471 235.799 43.4471C236.39 43.4471 236.834 43.3471 237.134 43.143C237.434 42.939 237.586 42.6829 237.586 42.3788C237.586 42.0747 237.478 41.8186 237.266 41.5905C237.054 41.3624 236.694 41.1583 236.198 40.9863L234.503 40.3741C233.792 40.11 233.144 39.7739 232.564 39.3737C231.984 38.9696 231.525 38.4774 231.189 37.8892C230.853 37.305 230.685 36.6008 230.685 35.7885C230.685 34.7481 230.929 33.8518 231.417 33.0955C231.904 32.3393 232.592 31.7591 233.48 31.3429C234.367 30.9308 235.407 30.7227 236.598 30.7227C237.566 30.7227 238.581 30.8548 239.641 31.1189C240.7 31.3829 241.56 31.679 242.223 32.0072C242.243 32.3753 242.199 32.7834 242.087 33.2316C241.975 33.6797 241.816 34.0919 241.608 34.472C241.4 34.8482 241.168 35.1363 240.912 35.3283C240.28 35.0442 239.593 34.7801 238.849 34.54C238.105 34.3 237.374 34.1799 236.65 34.1799C236.242 34.1799 235.93 34.276 235.719 34.472C235.503 34.6641 235.399 34.8962 235.399 35.1603C235.399 35.4244 235.491 35.6484 235.675 35.8325C235.858 36.0166 236.154 36.1806 236.562 36.3207L238.457 36.9929C239.617 37.401 240.584 37.9972 241.36 38.7815C242.135 39.5658 242.519 40.6102 242.519 41.9146C242.519 43.4351 241.935 44.6436 240.768 45.5479C239.601 46.4482 237.985 46.9003 235.918 46.9003C234.827 46.9003 233.792 46.7483 232.808 46.4482C231.825 46.1481 230.973 45.792 230.249 45.3838L230.237 45.3878Z" fill="#003986"/>
<path d="M252.271 25.5529C252.658 25.4729 253.086 25.4209 253.562 25.4008C254.034 25.3808 254.421 25.3688 254.717 25.3688C255.045 25.3688 255.429 25.3808 255.877 25.4008C256.324 25.4209 256.752 25.4729 257.16 25.5529V46.4442C256.752 46.5162 256.324 46.5642 255.877 46.5882C255.429 46.6122 255.041 46.6282 254.717 46.6282C254.421 46.6282 254.038 46.6162 253.562 46.5882C253.09 46.5642 252.658 46.5122 252.271 46.4442V25.5529Z" fill="#003986"/>
<path d="M260.126 45.3878C260.146 44.8796 260.286 44.3074 260.546 43.6752C260.806 43.043 261.11 42.5428 261.454 42.1747C262.125 42.5228 262.821 42.8189 263.541 43.071C264.26 43.3191 264.976 43.4471 265.688 43.4471C266.279 43.4471 266.723 43.3471 267.023 43.143C267.323 42.939 267.475 42.6829 267.475 42.3788C267.475 42.0747 267.367 41.8186 267.155 41.5905C266.943 41.3624 266.583 41.1583 266.087 40.9863L264.392 40.3741C263.681 40.11 263.033 39.7739 262.453 39.3737C261.874 38.9696 261.414 38.4774 261.078 37.8892C260.742 37.305 260.574 36.6008 260.574 35.7885C260.574 34.7481 260.818 33.8518 261.306 33.0955C261.794 32.3393 262.481 31.7591 263.369 31.3429C264.256 30.9308 265.296 30.7227 266.487 30.7227C267.455 30.7227 268.47 30.8548 269.53 31.1189C270.589 31.3829 271.449 31.679 272.113 32.0072C272.132 32.3753 272.089 32.7834 271.977 33.2316C271.865 33.6797 271.705 34.0919 271.497 34.472C271.289 34.8482 271.057 35.1363 270.801 35.3283C270.169 35.0442 269.482 34.7801 268.738 34.54C267.995 34.3 267.263 34.1799 266.539 34.1799C266.131 34.1799 265.82 34.276 265.608 34.472C265.392 34.6641 265.288 34.8962 265.288 35.1603C265.288 35.4244 265.38 35.6484 265.564 35.8325C265.748 36.0166 266.044 36.1806 266.451 36.3207L268.346 36.9929C269.506 37.401 270.473 37.9972 271.249 38.7815C272.025 39.5658 272.408 40.6102 272.408 41.9146C272.408 43.4351 271.825 44.6436 270.657 45.5479C269.49 46.4482 267.875 46.9003 265.808 46.9003C264.716 46.9003 263.681 46.7483 262.697 46.4482C261.714 46.1481 260.862 45.792 260.138 45.3838L260.126 45.3878Z" fill="#003986"/>
<path d="M281.688 42.955C281.8 43.2911 281.892 43.6552 281.964 44.0473C282.036 44.4395 282.072 44.8316 282.072 45.2158C282.072 45.3878 282.064 45.5719 282.048 45.7679C282.032 45.96 282 46.1361 281.948 46.2881C281.488 46.3601 280.976 46.4282 280.404 46.4962C279.833 46.5642 279.253 46.5962 278.661 46.5962C277.274 46.5962 276.295 46.2521 275.719 45.5639C275.143 44.8756 274.855 43.8033 274.855 42.3428V24.1444L275.071 23.9283H276.934C277.87 23.9283 278.537 24.1444 278.929 24.5726C279.321 25.0007 279.517 25.745 279.517 26.8053V41.5025C279.517 42.4708 279.961 42.955 280.844 42.955H281.684H281.688Z" fill="#003986"/>
<path d="M283.643 42.2667C283.643 41.0343 283.927 40.0259 284.498 39.2456C285.07 38.4654 285.814 37.8892 286.737 37.509C287.661 37.1329 288.644 36.9448 289.696 36.9448C290.156 36.9448 290.731 36.9568 291.431 36.9769C292.131 36.9969 292.758 37.0649 293.318 37.1769V40.206C292.878 40.1059 292.35 40.0459 291.735 40.0299C291.119 40.0139 290.607 40.0059 290.2 40.0059C289.516 40.0059 289.028 40.186 288.732 40.5501C288.436 40.9102 288.289 41.3784 288.289 41.9506C288.289 42.3587 288.416 42.6988 288.672 42.9669C288.928 43.239 289.268 43.3711 289.696 43.3711C290.307 43.3711 290.927 43.151 291.559 42.7148C292.191 42.2747 292.726 41.6745 293.162 40.9102L293.834 43.9393C293.438 44.4074 292.982 44.8716 292.474 45.3318C291.967 45.7919 291.371 46.168 290.687 46.4642C290.004 46.7603 289.204 46.9083 288.289 46.9083C287.241 46.9083 286.369 46.6722 285.682 46.2041C284.994 45.7359 284.482 45.1437 284.147 44.4314C283.811 43.7192 283.643 42.9989 283.643 42.2747V42.2667ZM297.504 44.2394C297.424 44.6555 297.232 45.1117 296.94 45.5998C296.644 46.088 296.348 46.4521 296.053 46.6842C295.157 46.6642 294.413 46.4601 293.83 46.072C293.242 45.6839 292.794 45.2077 292.486 44.6435C292.175 44.0793 291.975 43.5231 291.883 42.9829V36.4367C291.883 35.7924 291.723 35.3083 291.403 34.9842C291.083 34.66 290.575 34.496 289.884 34.496C289.232 34.496 288.516 34.6 287.745 34.8081C286.969 35.0162 286.182 35.2402 285.378 35.4723C285.042 35.0842 284.778 34.584 284.59 33.9678C284.402 33.3516 284.282 32.7474 284.231 32.1552C284.914 31.8711 285.674 31.627 286.509 31.4269C287.345 31.2268 288.177 31.0748 289.008 30.9668C289.84 30.8587 290.579 30.8067 291.231 30.8067C292.127 30.8067 292.99 30.9708 293.814 31.3029C294.637 31.635 295.317 32.1792 295.853 32.9394C296.388 33.6997 296.656 34.7281 296.656 36.0205V42.2467C296.656 42.6868 296.724 43.071 296.864 43.4071C297 43.7432 297.216 44.0193 297.512 44.2314L297.504 44.2394Z" fill="#003986"/>
<path d="M0.503998 32.7354C0.503998 39.5698 0.507996 46.4042 0.5 53.2425C0.5 54.8831 0.687906 57.512 1.34758 59.0326C3.54248 64.0863 8.81186 65.6829 13.6255 65.6829C21.7614 65.6829 29.8974 65.6789 38.0333 65.6829C43.9703 65.6869 50.0633 61.7455 51.0788 55.1352C51.1548 54.643 51.1548 54.1389 51.1588 53.6427C51.1668 51.774 51.1388 49.9054 51.1668 48.0367C51.2467 42.915 47.2927 37.369 40.2162 36.1766C39.1048 35.9885 37.9413 35.9965 36.8019 35.9965C28.2542 35.9845 21.7334 35.9965 13.1897 35.9765C12.0982 35.9765 10.9828 35.9165 9.9233 35.7044C7.66843 35.2563 5.33359 34.2479 3.69441 32.7314C3.69441 32.7314 2.21515 31.1909 1.81135 30.6387C1.81135 30.6387 0.871815 29.5023 0.707896 30.5026C0.707896 30.5026 0.575962 30.8988 0.507996 32.7274L0.503998 32.7354Z" fill="#E034BF"/>
<path d="M39.8403 29.2142C38.8528 29.0101 37.4175 28.8661 36.402 28.8621C28.446 28.842 22.373 28.8581 14.4169 28.842C13.3575 28.842 12.274 28.85 11.2385 28.666C4.64981 27.5136 0.967645 22.1357 1.03961 17.166C1.0676 15.3534 1.03961 13.5407 1.04761 11.7281C1.04761 11.2439 1.0516 10.7558 1.12357 10.2796C2.0671 3.86936 7.74027 0.0480293 13.2695 0.0520307C20.8457 0.0600335 28.418 0.0520307 35.9942 0.0520307C43.1386 0.0520307 46.1251 -0.708234 47.8923 3.51323C48.508 4.98975 48.2201 10.5277 48.2161 12.1202C48.2081 18.7505 48.2121 21.0433 48.2121 27.6696C48.2121 27.6696 47.4965 31.479 43.4625 30.0985L39.8443 29.2142H39.8403Z" fill="#FFC000"/>
<path d="M61.8333 30.0985C61.8333 30.0985 59.8863 33.8718 62.2651 36.0365C62.2651 36.0365 69.8293 44.9796 82.0792 44.7636C82.0792 44.7636 92.1662 46.2041 101.318 39.0656C101.318 39.0656 104.776 37.1889 102.901 32.2872L97.5675 11.448C97.5675 11.448 94.4251 0.524181 82.2711 -1.03785e-06C82.2711 -1.03785e-06 70.3331 -0.164058 66.443 11.588L61.8333 30.0985Z" fill="#79C724"/>
<path d="M59.8863 43.3191C59.8863 43.3191 81.4316 62.4297 104.56 43.3191C104.56 43.3191 105.604 42.4548 106.219 43.3191L109.21 55.3993C109.21 55.3993 111.049 61.2053 102.833 63.4021C94.617 65.6028 70.9488 65.0986 61.6175 63.4021C61.6175 63.4021 55.0967 61.9255 55.1327 56.5877L58.3031 43.7152C58.3031 43.7152 58.647 42.3307 59.8863 43.3191Z" fill="#00ABE5"/>
<path d="M115.511 18.7305V11.372C115.511 11.372 116.738 0.74026 128.336 2.54113e-06C128.336 2.54113e-06 137.776 -0.144048 140.586 9.36326C140.586 9.36326 141.522 14.6171 141.018 18.7265C141.018 18.7265 140.226 24.4245 134.821 24.5686C134.821 24.5686 124.878 25.0727 123.799 25.793C123.799 25.793 116.162 27.0894 115.511 18.7265V18.7305Z" fill="#FF0001"/>
<path d="M141.166 36.2326V56.5157C141.166 56.5157 139.847 64.6225 132.118 64.8706H124.446C124.446 64.8706 117.114 65.1707 115.511 56.3556V40.4021C115.511 40.4021 114.827 36.0766 121.04 34.1279C121.04 34.1279 126.553 31.1549 136.82 31.6951C136.82 31.6951 140.27 31.587 141.166 36.2366V36.2326Z" fill="#FF8500"/>
<path d="M152.536 51.754C152.632 51.734 152.744 51.722 152.872 51.71C153 51.702 153.128 51.694 153.256 51.694C153.396 51.694 153.532 51.698 153.664 51.71C153.796 51.718 153.911 51.734 154.015 51.754V64.8706C153.911 64.8906 153.796 64.9026 153.664 64.9146C153.532 64.9226 153.396 64.9306 153.256 64.9306C153.128 64.9306 153 64.9266 152.872 64.9146C152.744 64.9066 152.632 64.8906 152.536 64.8706V51.754Z" fill="#003986"/>
<path d="M162.103 55.3912C162.423 55.3912 162.631 55.4753 162.727 55.6473C162.823 55.8194 162.871 56.0635 162.871 56.3836V64.8745C162.783 64.8945 162.675 64.9065 162.555 64.9185C162.435 64.9265 162.307 64.9345 162.171 64.9345C162.031 64.9345 161.899 64.9305 161.779 64.9185C161.66 64.9105 161.552 64.8945 161.464 64.8745V55.5113L161.58 55.3952H162.107L162.103 55.3912ZM168.636 63.0459C168.636 63.358 168.652 63.6581 168.684 63.9382C168.716 64.2183 168.776 64.4664 168.868 64.6784C168.764 64.7665 168.632 64.8425 168.464 64.8985C168.296 64.9545 168.132 64.9866 167.964 64.9866C167.697 64.9866 167.505 64.9105 167.393 64.7545C167.281 64.5984 167.225 64.3663 167.225 64.0542V58.7244C167.225 57.9641 167.129 57.4119 166.933 57.0718C166.737 56.7317 166.365 56.5636 165.813 56.5636C165.422 56.5636 165.01 56.6557 164.574 56.8357C164.138 57.0158 163.734 57.2599 163.359 57.564C162.983 57.8681 162.691 58.2042 162.479 58.5763V57.0678C162.895 56.5436 163.439 56.1115 164.11 55.7754C164.782 55.4392 165.466 55.2712 166.165 55.2712C166.773 55.2712 167.257 55.4072 167.613 55.6793C167.972 55.9514 168.228 56.3155 168.388 56.7677C168.548 57.2239 168.628 57.72 168.628 58.2642V63.0379L168.636 63.0459Z" fill="#003986"/>
<path d="M175.865 60.5971V59.5007H181.102V59.2326C181.102 58.7004 181.026 58.2163 180.878 57.7721C180.726 57.3319 180.486 56.9758 180.154 56.7117C179.823 56.4476 179.383 56.3116 178.839 56.3116C178.083 56.3116 177.508 56.6317 177.108 57.2759C176.708 57.9201 176.508 58.7644 176.508 59.8168V60.269C176.508 60.9612 176.584 61.5774 176.732 62.1176C176.884 62.6578 177.136 63.0819 177.496 63.3901C177.856 63.6982 178.347 63.8502 178.975 63.8502C179.487 63.8502 179.975 63.7742 180.438 63.6181C180.902 63.4621 181.342 63.27 181.758 63.0339C181.894 63.154 182.006 63.314 182.101 63.5061C182.197 63.6982 182.253 63.8702 182.273 64.0263C181.834 64.3384 181.306 64.5985 180.69 64.7985C180.074 64.9986 179.439 65.1026 178.779 65.1026C178.063 65.1026 177.46 64.9706 176.976 64.7025C176.488 64.4384 176.104 64.0703 175.817 63.6061C175.529 63.142 175.321 62.6138 175.193 62.0176C175.065 61.4214 175.001 60.7972 175.001 60.1449C175.001 59.1966 175.153 58.3523 175.453 57.608C175.753 56.8638 176.188 56.2796 176.764 55.8554C177.336 55.4313 178.027 55.2152 178.843 55.2152C179.659 55.2152 180.354 55.3993 180.902 55.7674C181.45 56.1355 181.862 56.6317 182.133 57.2519C182.409 57.8721 182.545 58.5604 182.545 59.3166C182.545 59.5607 182.537 59.7728 182.525 59.9609C182.513 60.1489 182.489 60.357 182.457 60.5931H175.865V60.5971Z" fill="#003986"/>
<path d="M193.843 55.4512C193.895 55.4312 193.983 55.4152 194.107 55.3992C194.231 55.3832 194.347 55.3752 194.447 55.3752C194.599 55.3752 194.739 55.3872 194.863 55.4072C194.987 55.4312 195.083 55.4552 195.147 55.4873L195.203 55.6113L192.324 60.1449L191.884 60.625L189.226 64.8905C189.174 64.9105 189.082 64.9265 188.946 64.9426C188.81 64.9586 188.69 64.9666 188.582 64.9666C188.446 64.9666 188.318 64.9546 188.198 64.9265C188.078 64.9025 187.978 64.8705 187.902 64.8305L187.846 64.7065L191.101 59.6367L191.601 59.1005L193.847 55.4512H193.843ZM188.106 55.6433C188.234 55.5553 188.39 55.4753 188.578 55.4032C188.762 55.3312 188.938 55.2992 189.098 55.2992C189.27 55.2992 189.41 55.3392 189.514 55.4152C189.618 55.4913 189.721 55.5993 189.817 55.7313L195.623 64.6625C195.495 64.7465 195.339 64.8225 195.151 64.8985C194.967 64.9706 194.791 65.0106 194.623 65.0106C194.455 65.0106 194.311 64.9706 194.199 64.8945C194.091 64.8185 193.991 64.7105 193.903 64.5784L188.106 55.6473V55.6433Z" fill="#003986"/>
<path d="M202.135 55.3912C202.455 55.3912 202.663 55.4793 202.763 55.6513C202.863 55.8234 202.911 56.0755 202.911 56.3996V68.0276C202.911 68.3397 202.863 68.5798 202.771 68.7479C202.679 68.9159 202.471 68.996 202.151 68.996H201.632L201.516 68.8799V55.5033L201.632 55.3872H202.131L202.135 55.3912ZM208.94 60.0409C208.94 61.2053 208.756 62.1576 208.392 62.8938C208.028 63.6301 207.569 64.1703 207.021 64.5104C206.469 64.8545 205.913 65.0226 205.35 65.0226C204.786 65.0226 204.222 64.9025 203.711 64.6585C203.199 64.4144 202.715 64.1143 202.263 63.7541L202.339 62.4977C202.703 62.7778 203.131 63.0659 203.627 63.358C204.118 63.6501 204.65 63.7942 205.218 63.7942C205.602 63.7942 205.969 63.6661 206.317 63.41C206.665 63.1539 206.949 62.7498 207.173 62.1936C207.397 61.6374 207.505 60.9212 207.505 60.0368C207.505 59.1525 207.409 58.4883 207.213 57.9641C207.017 57.4399 206.765 57.0558 206.449 56.8157C206.133 56.5757 205.801 56.4556 205.442 56.4556C205.058 56.4556 204.666 56.5556 204.266 56.7597C203.866 56.9598 203.507 57.2479 203.183 57.62C202.859 57.9921 202.619 58.4403 202.459 58.9645L202.211 57.62C202.363 57.2359 202.607 56.8597 202.935 56.4916C203.263 56.1235 203.667 55.8194 204.138 55.5793C204.61 55.3392 205.138 55.2192 205.722 55.2192C206.425 55.2192 207.017 55.4232 207.497 55.8274C207.976 56.2355 208.336 56.7997 208.58 57.524C208.824 58.2482 208.944 59.0845 208.944 60.0409H208.94Z" fill="#003986"/>
<path d="M218.263 63.7662C218.303 63.8702 218.331 63.9863 218.355 64.1223C218.379 64.2584 218.387 64.3944 218.387 64.5345C218.387 64.5865 218.387 64.6385 218.383 64.6865C218.379 64.7345 218.371 64.7865 218.359 64.8306C218.175 64.8546 217.944 64.8826 217.672 64.9066C217.4 64.9306 217.16 64.9466 216.956 64.9466C216.476 64.9466 216.088 64.8105 215.789 64.5385C215.493 64.2664 215.341 63.8702 215.341 63.354V50.8697L215.457 50.7537H215.977C216.296 50.7537 216.504 50.8337 216.596 50.9977C216.688 51.1618 216.736 51.4019 216.736 51.722V62.9579C216.736 63.4941 216.976 63.7662 217.456 63.7662H218.263Z" fill="#003986"/>
<path d="M231.677 60.1569C231.677 61.1092 231.525 61.9615 231.225 62.7058C230.925 63.45 230.477 64.0382 229.886 64.4624C229.294 64.8865 228.558 65.1026 227.675 65.1026C226.791 65.1026 226.063 64.8865 225.472 64.4544C224.88 64.0222 224.436 63.434 224.144 62.6858C223.849 61.9415 223.705 61.0972 223.705 60.1569C223.705 59.2166 223.857 58.3643 224.156 57.62C224.456 56.8758 224.9 56.2916 225.492 55.8634C226.079 55.4353 226.811 55.2192 227.679 55.2192C228.546 55.2192 229.31 55.4353 229.901 55.8634C230.493 56.2916 230.937 56.8798 231.237 57.62C231.533 58.3643 231.685 59.2086 231.685 60.1569H231.677ZM225.172 60.1569C225.172 60.7891 225.252 61.4013 225.408 61.9855C225.564 62.5697 225.828 63.0499 226.195 63.426C226.563 63.8022 227.063 63.9862 227.699 63.9862C228.334 63.9862 228.83 63.7982 229.194 63.426C229.558 63.0499 229.818 62.5697 229.969 61.9855C230.121 61.4013 230.201 60.7891 230.201 60.1569C230.201 59.5247 230.125 58.9205 229.969 58.3323C229.814 57.7441 229.558 57.2599 229.194 56.8838C228.83 56.5076 228.33 56.3156 227.699 56.3156C227.067 56.3156 226.563 56.5036 226.195 56.8838C225.828 57.2639 225.564 57.7441 225.408 58.3323C225.252 58.9205 225.172 59.5287 225.172 60.1569Z" fill="#003986"/>
<path d="M237.618 56.1035C237.662 55.9755 237.742 55.8314 237.858 55.6754C237.973 55.5193 238.097 55.3993 238.233 55.3152C238.737 55.4953 239.109 55.8114 239.341 56.2676C239.573 56.7237 239.705 57.2759 239.729 57.9282V64.8706C239.641 64.8906 239.533 64.9026 239.413 64.9146C239.293 64.9226 239.165 64.9306 239.029 64.9306C238.889 64.9306 238.757 64.9266 238.637 64.9146C238.517 64.9066 238.409 64.8906 238.321 64.8706V58.0722C238.321 57.592 238.249 57.1879 238.101 56.8558C237.953 56.5277 237.794 56.2756 237.622 56.1035H237.618ZM243.067 55.3913C243.067 55.6073 243.043 55.8434 242.995 56.0915C242.947 56.3396 242.859 56.5597 242.731 56.7437C242.627 56.7317 242.519 56.7237 242.403 56.7197C242.287 56.7197 242.175 56.7157 242.067 56.7157C241.64 56.7157 241.272 56.8078 240.964 56.9878C240.656 57.1719 240.4 57.4 240.196 57.6761C239.992 57.9522 239.829 58.2403 239.701 58.5404C239.577 58.8405 239.485 59.1126 239.429 59.3566L239.169 59.0405C239.169 58.6324 239.225 58.2083 239.341 57.7721C239.457 57.3359 239.633 56.9318 239.869 56.5637C240.104 56.1915 240.416 55.8914 240.8 55.6594C241.184 55.4273 241.644 55.3152 242.183 55.3152C242.291 55.3152 242.423 55.3192 242.571 55.3312C242.723 55.3393 242.887 55.3633 243.067 55.3953V55.3913Z" fill="#003986"/>
<path d="M247.857 62.3177C247.857 61.6054 248.009 61.0212 248.312 60.5651C248.616 60.1089 249.04 59.7688 249.58 59.5527C250.12 59.3366 250.747 59.2246 251.455 59.2246C251.851 59.2246 252.278 59.2446 252.742 59.2886C253.202 59.3286 253.638 59.4007 254.046 59.5047V60.521C253.67 60.433 253.254 60.369 252.802 60.337C252.35 60.305 251.907 60.289 251.475 60.289C250.811 60.289 250.279 60.457 249.888 60.7931C249.496 61.1293 249.296 61.6014 249.296 62.2096C249.296 62.6778 249.424 63.0739 249.684 63.402C249.944 63.7302 250.323 63.8902 250.819 63.8902C251.315 63.8902 251.879 63.7142 252.466 63.362C253.05 63.0099 253.546 62.4737 253.95 61.7575L254.19 63.0539C253.974 63.31 253.69 63.5981 253.342 63.9182C252.994 64.2383 252.59 64.5144 252.139 64.7505C251.683 64.9826 251.183 65.1026 250.631 65.1026C250.012 65.1026 249.496 64.9666 249.08 64.6905C248.664 64.4144 248.36 64.0663 248.161 63.6381C247.961 63.214 247.857 62.7738 247.857 62.3177ZM255.477 64.2663C255.433 64.4024 255.349 64.5384 255.233 64.6825C255.113 64.8265 254.981 64.9346 254.833 65.0026C254.521 64.8866 254.269 64.7265 254.086 64.5224C253.902 64.3184 253.766 64.0743 253.686 63.7982C253.606 63.5181 253.562 63.214 253.558 62.8819V58.4243C253.558 57.7121 253.402 57.2079 253.086 56.9118C252.774 56.6157 252.35 56.4636 251.819 56.4636C251.287 56.4636 250.779 56.5397 250.251 56.6957C249.724 56.8478 249.204 57.0398 248.692 57.2639C248.564 57.1559 248.452 56.9918 248.352 56.7757C248.252 56.5597 248.205 56.3516 248.205 56.1515C248.524 56.0115 248.892 55.8714 249.304 55.7354C249.716 55.5993 250.152 55.4833 250.607 55.3953C251.063 55.3072 251.519 55.2592 251.967 55.2592C252.63 55.2592 253.186 55.3793 253.626 55.6233C254.066 55.8674 254.397 56.2235 254.613 56.6997C254.829 57.1759 254.941 57.7561 254.941 58.4483V62.4057C254.941 62.8098 254.973 63.166 255.033 63.4701C255.093 63.7782 255.241 64.0423 255.481 64.2663H255.477Z" fill="#003986"/>
<path d="M261.222 60.2689C261.222 59.1045 261.406 58.1562 261.77 57.42C262.133 56.6877 262.593 56.1475 263.141 55.8074C263.693 55.4633 264.244 55.2952 264.8 55.2952C265.356 55.2952 265.928 55.4153 266.439 55.6553C266.951 55.8954 267.439 56.1955 267.899 56.5517L267.823 57.8201C267.451 57.54 267.023 57.2519 266.531 56.9598C266.044 56.6677 265.512 56.5236 264.944 56.5236C264.56 56.5236 264.192 56.6517 263.845 56.9078C263.497 57.1639 263.213 57.568 262.989 58.1162C262.765 58.6644 262.657 59.3886 262.657 60.2769C262.657 61.1653 262.753 61.8175 262.949 62.3457C263.145 62.8738 263.397 63.258 263.713 63.4981C264.025 63.7381 264.36 63.8582 264.712 63.8582C265.104 63.8582 265.496 63.7582 265.892 63.5541C266.287 63.35 266.647 63.0659 266.971 62.6898C267.295 62.3137 267.535 61.8695 267.695 61.3493L267.955 62.6938C267.803 63.0779 267.559 63.454 267.227 63.8222C266.895 64.1903 266.491 64.4944 266.024 64.7345C265.552 64.9746 265.024 65.0946 264.436 65.0946C263.741 65.0946 263.149 64.8905 262.669 64.4864C262.189 64.0783 261.83 63.5141 261.586 62.7858C261.342 62.0576 261.222 61.2173 261.222 60.2649V60.2689ZM268.602 62.2096C268.602 62.6178 268.634 63.0099 268.694 63.378C268.754 63.7462 268.902 64.0423 269.142 64.2663C269.098 64.4024 269.014 64.5384 268.894 64.6825C268.774 64.8265 268.638 64.9346 268.49 65.0026C267.987 64.8185 267.647 64.5104 267.475 64.0823C267.303 63.6541 267.215 63.182 267.215 62.6698V50.8657L267.331 50.7496H267.851C268.17 50.7496 268.378 50.8297 268.47 50.9937C268.562 51.1578 268.61 51.3979 268.61 51.718V62.2056L268.602 62.2096Z" fill="#003986"/>
<path d="M275.075 62.3177C275.075 61.6054 275.227 61.0212 275.531 60.5651C275.835 60.1089 276.259 59.7688 276.798 59.5527C277.338 59.3366 277.966 59.2246 278.673 59.2246C279.069 59.2246 279.497 59.2446 279.961 59.2886C280.421 59.3286 280.856 59.4007 281.264 59.5047V60.521C280.888 60.433 280.473 60.369 280.021 60.337C279.569 60.305 279.125 60.289 278.693 60.289C278.03 60.289 277.498 60.457 277.106 60.7931C276.714 61.1293 276.514 61.6014 276.514 62.2096C276.514 62.6778 276.642 63.0739 276.902 63.402C277.162 63.7302 277.542 63.8902 278.038 63.8902C278.533 63.8902 279.097 63.7142 279.685 63.362C280.269 63.0099 280.764 62.4737 281.168 61.7575L281.408 63.0539C281.192 63.31 280.908 63.5981 280.56 63.9182C280.213 64.2383 279.809 64.5144 279.357 64.7505C278.901 64.9826 278.402 65.1026 277.85 65.1026C277.23 65.1026 276.714 64.9666 276.299 64.6905C275.883 64.4144 275.579 64.0663 275.379 63.6381C275.179 63.214 275.075 62.7738 275.075 62.3177ZM282.695 64.2663C282.651 64.4024 282.567 64.5384 282.451 64.6825C282.332 64.8265 282.2 64.9346 282.052 65.0026C281.74 64.8866 281.488 64.7265 281.304 64.5224C281.12 64.3184 280.984 64.0743 280.904 63.7982C280.824 63.5181 280.78 63.214 280.776 62.8819V58.4243C280.776 57.7121 280.62 57.2079 280.305 56.9118C279.993 56.6157 279.569 56.4636 279.037 56.4636C278.505 56.4636 277.998 56.5397 277.47 56.6957C276.942 56.8478 276.423 57.0398 275.911 57.2639C275.783 57.1559 275.671 56.9918 275.571 56.7757C275.471 56.5597 275.423 56.3516 275.423 56.1515C275.743 56.0115 276.111 55.8714 276.522 55.7354C276.934 55.5993 277.37 55.4833 277.826 55.3953C278.282 55.3072 278.737 55.2592 279.185 55.2592C279.849 55.2592 280.405 55.3793 280.844 55.6233C281.284 55.8674 281.616 56.2235 281.832 56.6997C282.048 57.1759 282.16 57.7561 282.16 58.4483V62.4057C282.16 62.8098 282.192 63.166 282.252 63.4701C282.312 63.7782 282.459 64.0423 282.699 64.2663H282.695Z" fill="#003986"/>
</svg>
